<?xml version="1.0" standalone="no"?>
<!DOCTYPE svg PUBLIC "-//W3C//DTD SVG 20010904//EN"
 "http://www.w3.org/TR/2001/REC-SVG-20010904/DTD/svg10.dtd">
<svg version="1.0" xmlns="http://www.w3.org/2000/svg"
 width="1000.000000pt" height="1000.000000pt" viewBox="0 0 1000.000000 1000.000000"
 preserveAspectRatio="xMidYMid meet">
<metadata>
Created by potrace 1.14, written by Peter Selinger 2001-2017
</metadata>
<g transform="translate(0.000000,1000.000000) scale(0.100000,-0.100000)"
fill="#000000" stroke="none">
<path d="M5675 9654 c-27 -7 -53 -13 -57 -14 -15 0 -8 -20 7 -20 9 0 18 -7 21
-15 4 -8 11 -15 18 -15 12 -1 92 -98 114 -139 18 -33 52 -120 59 -146 11 -48
9 -193 -4 -240 -16 -56 -53 -136 -68 -147 -5 -4 -6 -8 -2 -8 4 0 2 -10 -5 -22
-7 -13 -13 -25 -13 -28 -1 -3 -7 -17 -13 -33 -17 -41 -23 -74 -27 -152 -3 -63
0 -91 19 -175 8 -34 69 -160 78 -160 4 0 4 10 2 23 -20 81 0 263 37 344 11 23
24 53 29 65 22 50 56 93 130 164 56 53 155 134 165 134 5 0 39 29 104 90 59
54 67 80 46 152 -21 76 -94 171 -190 247 -28 21 -147 83 -170 87 -5 1 -29 7
-53 12 -59 14 -168 12 -227 -4z"/>
<path d="M6569 9508 c-1 -44 -8 -113 -11 -128 -32 -124 -91 -224 -181 -305
-68 -62 -84 -75 -93 -75 -3 0 -26 -13 -51 -30 -24 -16 -48 -30 -54 -30 -5 0
-9 -3 -9 -7 -1 -5 -22 -23 -48 -42 -26 -19 -63 -53 -82 -77 -19 -24 -40 -50
-46 -57 -18 -21 -74 -140 -74 -157 0 -9 -3 -20 -7 -24 -7 -7 -8 -9 -17 -71 -5
-41 -9 -116 -6 -125 1 -3 3 -16 4 -30 6 -57 18 -115 28 -133 19 -36 18 -55 -3
-50 -11 3 -22 9 -25 14 -3 5 -13 9 -23 9 -10 0 -31 7 -47 14 -15 8 -31 13 -36
10 -4 -3 -8 0 -8 5 0 6 -7 11 -15 11 -8 0 -23 4 -33 10 -43 23 -363 142 -418
155 -19 4 -80 20 -119 31 -11 3 -29 7 -40 9 -11 2 -65 15 -120 29 -55 13 -117
27 -139 30 -21 4 -41 8 -45 10 -3 2 -30 7 -60 10 -29 4 -56 8 -60 10 -3 2 -37
7 -76 10 -38 4 -83 9 -100 12 -58 8 -161 16 -217 18 -32 0 -58 5 -58 10 0 5
-7 3 -15 -4 -8 -7 -15 -9 -15 -4 0 15 -430 7 -615 -11 -101 -10 -215 -23 -255
-30 -8 -1 -35 -6 -60 -10 -25 -4 -54 -9 -65 -11 -11 -3 -36 -7 -55 -10 -53 -9
-293 -63 -310 -71 -8 -3 -23 -7 -32 -9 -53 -11 -527 -246 -536 -266 -2 -5 -10
-8 -17 -8 -7 0 -15 -3 -17 -7 -1 -5 -21 -20 -44 -36 -22 -15 -49 -35 -60 -45
-10 -9 -35 -29 -54 -43 -35 -27 -127 -117 -311 -305 -53 -55 -117 -116 -142
-137 -64 -54 -135 -107 -142 -107 -4 0 -21 -11 -39 -25 -18 -14 -38 -25 -44
-25 -7 0 -12 -5 -12 -11 0 -5 -4 -8 -9 -5 -5 4 -11 2 -13 -2 -6 -16 -284 -138
-300 -133 -2 1 -27 -6 -57 -15 -30 -9 -62 -17 -70 -19 -9 -2 -44 -10 -79 -19
-34 -9 -82 -19 -106 -21 -67 -7 -150 -31 -218 -64 -70 -34 -173 -118 -209
-171 -13 -19 -26 -37 -29 -40 -13 -13 -62 -104 -65 -120 0 -3 -3 -9 -6 -15 -9
-14 -27 -74 -34 -110 -22 -109 -20 -191 3 -232 7 -13 10 -23 7 -23 -23 0 83
-127 155 -185 77 -62 109 -85 119 -85 7 0 17 -5 24 -10 7 -6 20 -16 30 -23 9
-7 20 -26 23 -42 10 -61 62 -177 101 -226 26 -35 126 -132 148 -146 46 -29
103 -57 150 -74 l50 -17 2 -114 c3 -144 6 -175 21 -190 17 -17 67 34 145 145
34 49 67 96 74 105 9 14 11 6 6 -38 -7 -82 -10 -290 -3 -330 10 -65 64 -41
142 62 10 13 32 41 49 63 16 22 50 72 75 111 34 54 51 73 72 77 15 3 65 12
112 21 130 24 194 32 320 42 47 3 94 7 105 8 11 1 26 -2 33 -7 6 -5 12 -5 12
-1 0 5 36 9 80 9 44 0 80 -4 80 -9 0 -5 6 -3 13 3 8 6 16 8 20 5 3 -3 38 -7
79 -10 40 -2 89 -6 108 -8 127 -18 151 -21 198 -30 94 -18 170 -36 195 -45 15
-6 27 -9 27 -6 0 2 19 -3 43 -11 23 -9 49 -17 57 -19 8 -2 15 -4 15 -5 0 -1 9
-3 20 -5 80 -12 441 -177 572 -261 29 -18 53 -31 53 -28 0 2 12 -6 26 -20 15
-13 38 -30 53 -38 14 -7 28 -15 31 -18 3 -3 21 -17 40 -30 19 -13 37 -27 40
-30 3 -3 24 -20 48 -37 115 -83 340 -303 432 -423 19 -24 41 -51 48 -59 28
-30 92 -121 92 -131 0 -5 4 -10 8 -10 5 0 17 -16 28 -35 10 -19 22 -35 26 -35
5 0 8 -5 8 -10 0 -6 11 -29 26 -51 60 -95 155 -285 198 -394 16 -38 32 -78 37
-87 5 -10 9 -27 9 -37 0 -11 4 -22 9 -25 5 -3 11 -16 14 -28 3 -13 19 -70 36
-128 17 -58 33 -116 36 -130 3 -14 7 -35 10 -48 12 -52 14 -61 19 -98 4 -22 8
-46 11 -54 2 -8 6 -37 9 -65 l5 -50 -17 35 c-9 19 -21 40 -27 47 -5 6 -21 27
-34 45 -25 34 -109 104 -139 115 -9 4 -19 10 -22 13 -13 17 -131 53 -187 56
-71 3 -63 10 -113 -96 -40 -84 -110 -208 -135 -235 -5 -7 -19 -25 -30 -40 -26
-37 -176 -185 -187 -185 -5 0 -7 4 -3 9 6 10 7 231 1 291 -13 141 -29 195 -40
134 -4 -21 -14 -51 -22 -66 -8 -15 -14 -36 -14 -48 0 -11 -4 -20 -10 -20 -5 0
-7 -7 -4 -15 4 -8 1 -15 -7 -15 -7 0 -9 -3 -6 -6 14 -15 -156 -314 -214 -377
-14 -15 -30 -18 -89 -16 -73 2 -222 35 -228 51 -2 4 -10 8 -17 8 -28 0 -142
76 -202 134 -62 62 -96 116 -109 171 -12 55 -7 185 7 185 4 0 6 6 6 12 -1 7
11 39 26 71 38 81 45 161 20 218 -19 43 -50 65 -138 100 -75 30 -240 29 -320
-1 -13 -5 -25 -7 -28 -4 -2 2 -10 -2 -17 -11 -7 -8 -18 -15 -26 -15 -18 0 -98
-52 -138 -88 -107 -99 -185 -232 -203 -347 -2 -16 -8 -46 -12 -65 -6 -30 -7
-215 -1 -215 1 0 3 -11 5 -25 14 -109 34 -182 83 -300 29 -72 101 -203 114
-208 4 -2 8 -8 8 -14 0 -26 154 -196 208 -230 34 -21 35 -30 4 -34 -119 -16
-305 -70 -299 -87 4 -13 222 -127 243 -127 8 0 14 -4 14 -10 0 -5 8 -10 18
-10 10 0 22 -3 25 -7 11 -10 180 -62 188 -57 4 2 9 0 11 -5 1 -6 14 -12 28
-14 14 -2 32 -7 40 -10 8 -4 27 -8 42 -11 14 -2 36 -10 48 -16 12 -6 24 -9 27
-6 4 3 11 2 17 -3 11 -9 52 -17 131 -27 22 -3 51 -7 65 -10 55 -10 172 -17
300 -16 164 0 226 6 385 34 39 7 78 12 88 11 9 0 17 4 17 10 0 6 3 8 6 4 3 -3
23 1 44 8 21 7 51 16 67 18 28 5 80 21 118 37 11 4 58 22 105 40 147 56 416
206 528 296 148 118 303 265 382 363 19 23 42 51 51 62 9 11 27 35 40 54 13
19 27 35 32 35 4 0 7 4 7 10 0 5 25 47 55 93 106 163 268 522 257 570 -1 4 3
7 9 7 5 0 7 5 4 10 -3 5 -3 16 2 22 4 7 8 18 9 23 3 17 13 58 25 105 6 25 13
56 15 70 2 14 7 41 10 60 l6 35 13 -50 c37 -144 56 -443 40 -605 -2 -19 -6
-64 -9 -100 -8 -80 -13 -112 -41 -245 -21 -99 -21 -97 -28 -115 -5 -12 -27
-89 -32 -110 -5 -25 -30 -88 -38 -97 -5 -7 -7 -13 -4 -13 25 0 -209 -447 -260
-498 -7 -7 -13 -17 -13 -22 0 -5 -6 -15 -13 -22 -7 -7 -30 -35 -50 -62 -95
-125 -239 -273 -362 -371 -28 -22 -51 -43 -53 -47 -2 -5 -10 -8 -18 -8 -8 0
-14 -4 -14 -8 0 -5 -29 -28 -65 -51 -59 -39 -78 -69 -37 -57 10 3 37 8 62 11
92 13 123 18 170 29 27 6 68 14 115 22 17 3 82 19 145 35 63 17 122 32 130 34
69 17 264 81 292 96 10 5 27 9 37 9 11 0 23 5 26 10 4 6 11 8 16 5 5 -4 9 -1
9 4 0 6 7 11 15 11 9 0 42 11 75 25 33 14 62 25 65 25 8 0 -10 -31 -32 -55
-10 -11 -43 -52 -74 -90 -31 -39 -66 -81 -78 -94 -11 -13 -21 -28 -21 -33 0
-5 -4 -6 -10 -3 -5 3 -10 1 -10 -5 0 -12 -236 -252 -316 -321 -87 -76 -137
-117 -199 -163 -33 -25 -67 -52 -75 -59 -8 -8 -28 -22 -45 -33 -16 -10 -32
-21 -35 -25 -6 -7 -160 -109 -165 -109 -2 0 -23 -13 -47 -29 -24 -15 -74 -45
-113 -66 -38 -21 -76 -42 -82 -47 -7 -6 -13 -7 -13 -2 0 5 -4 4 -8 -2 -4 -6
-42 -27 -84 -48 -43 -21 -78 -40 -78 -42 0 -4 23 -2 140 11 30 3 75 8 100 10
51 5 71 8 225 37 159 29 353 78 425 105 8 3 21 8 28 10 6 1 18 5 25 6 6 2 20
7 30 10 9 4 25 10 35 14 9 3 22 7 28 8 17 4 204 81 269 110 33 16 67 29 75 31
8 2 16 8 18 13 2 6 10 11 17 11 12 0 117 53 210 107 22 12 47 26 55 30 8 3 41
24 73 45 32 21 63 38 68 38 5 0 9 4 9 9 0 5 11 12 25 15 14 4 25 11 25 16 0 6
7 10 15 10 8 0 15 3 15 8 0 4 18 18 40 32 22 14 40 28 40 32 0 4 9 10 20 13
12 4 30 16 40 28 11 11 20 17 20 13 0 -4 11 3 25 16 13 13 30 28 37 33 137
105 412 367 529 504 30 35 59 69 64 75 18 20 150 190 160 207 6 9 41 63 80
120 38 57 69 107 67 112 -1 4 2 7 6 7 4 0 21 25 37 55 42 77 52 71 29 -17 -5
-16 -9 -34 -19 -80 -2 -13 -7 -35 -11 -50 -3 -15 -5 -30 -5 -33 0 -2 -6 -23
-14 -45 -8 -22 -15 -44 -15 -48 -7 -74 -131 -411 -234 -634 -15 -32 -27 -61
-28 -65 -1 -5 -8 -14 -15 -21 -7 -8 -11 -18 -8 -23 4 -5 3 -9 -2 -9 -4 0 -28
-39 -53 -88 -25 -48 -48 -89 -51 -92 -3 -3 -14 -21 -25 -40 -10 -19 -25 -41
-31 -48 -7 -7 -13 -20 -13 -28 0 -8 -3 -14 -8 -14 -4 0 -16 -16 -27 -36 -10
-19 -29 -48 -42 -62 -36 -42 -24 -62 12 -22 10 11 24 20 31 20 7 0 14 4 16 8
2 5 28 26 58 48 49 34 186 141 216 169 6 5 40 35 74 65 118 104 272 262 371
381 33 41 69 84 79 96 34 39 202 277 213 301 5 12 14 22 19 22 4 0 8 5 8 10 0
6 12 29 26 52 34 53 81 136 97 168 6 14 17 31 24 38 7 8 11 17 8 22 -3 4 2 13
10 20 8 7 15 16 15 21 0 5 22 54 50 109 27 55 50 104 51 108 2 8 12 35 30 77
7 17 13 33 14 38 2 4 4 9 5 12 1 3 3 8 5 13 1 4 6 18 12 32 13 31 44 122 47
135 1 6 4 15 8 20 6 10 27 84 28 97 0 5 7 25 15 45 8 21 16 49 19 63 2 14 7
32 10 40 3 8 8 27 11 43 5 28 15 74 19 92 4 14 16 75 21 100 2 11 4 22 5 25 4
11 7 26 8 48 3 38 19 16 26 -35 4 -27 9 -57 11 -68 2 -11 9 -56 15 -100 7 -44
14 -91 16 -105 9 -55 18 -179 18 -257 1 -46 3 -83 6 -83 3 0 5 -65 5 -145 0
-80 -2 -145 -5 -145 -3 0 -6 -41 -7 -91 -3 -80 -1 -89 12 -75 8 8 15 19 15 24
0 6 3 12 8 14 4 2 28 35 53 73 97 149 114 176 146 238 8 15 19 27 25 27 6 0 8
3 5 7 -4 3 1 18 10 32 28 43 143 273 143 287 0 7 4 14 8 16 10 3 126 291 131
321 0 4 7 20 16 37 8 16 16 37 18 47 2 10 17 59 32 108 16 50 30 97 32 105 3
24 11 55 14 55 1 0 3 9 5 20 2 11 10 47 18 79 8 33 13 63 10 68 -3 4 0 8 5 8
6 0 10 3 9 8 -1 6 3 38 18 127 1 6 3 12 4 15 1 3 3 16 5 30 3 26 12 91 20 150
6 41 14 127 21 225 11 152 5 509 -10 643 -14 123 -18 150 -22 187 -4 40 -38
234 -54 310 -4 22 -11 54 -15 70 -21 103 -112 425 -134 480 -5 11 -28 74 -52
140 -24 66 -49 131 -56 145 -7 14 -13 31 -13 38 0 7 -4 20 -10 30 -5 9 -35 73
-66 142 -61 139 -177 363 -248 483 -25 43 -46 83 -46 88 0 5 -4 9 -10 9 -5 0
-10 5 -10 11 0 5 -7 20 -15 32 -8 12 -58 87 -112 167 -53 80 -102 151 -110
158 -7 7 -13 17 -13 20 0 4 -10 18 -23 32 -12 14 -34 41 -47 60 -13 19 -29 40
-35 46 -5 6 -28 32 -50 59 -50 60 -175 192 -176 185 0 -3 -3 -27 -5 -55 -7
-85 -34 -227 -56 -300 -11 -38 -21 -76 -21 -82 0 -7 -4 -13 -9 -13 -5 0 -7 -4
-4 -8 3 -5 -1 -20 -9 -35 -7 -14 -11 -28 -7 -31 3 -3 0 -6 -6 -6 -7 0 -12 -7
-12 -15 0 -19 -105 -222 -126 -242 -8 -8 -14 -19 -14 -25 0 -6 -11 -24 -25
-42 -15 -17 -49 -60 -78 -96 -49 -61 -155 -171 -208 -215 -128 -105 -245 -180
-378 -242 -84 -40 -238 -95 -296 -108 -11 -2 -31 -7 -45 -10 -14 -3 -36 -8
-50 -11 -14 -2 -36 -7 -50 -10 -73 -17 -351 -23 -460 -10 -30 3 -71 8 -90 10
-19 2 -48 9 -63 15 -16 6 -26 7 -23 3 3 -5 -24 1 -59 12 -36 11 -64 21 -62 22
1 1 31 5 67 9 36 4 74 9 85 12 11 2 31 6 45 9 59 12 150 37 215 61 39 13 75
26 81 27 7 1 19 8 28 15 9 7 16 11 16 7 0 -8 179 85 222 116 18 12 43 29 57
36 69 36 262 213 351 322 25 30 48 57 53 58 4 2 7 7 7 12 0 5 17 35 38 67 21
32 53 85 71 118 18 33 38 66 43 73 6 6 8 12 4 12 -4 0 1 15 11 33 9 17 18 34
18 37 3 9 17 45 27 70 6 14 13 30 14 35 29 99 54 199 60 235 13 85 14 95 19
175 9 135 11 185 5 185 -3 0 -5 21 -6 48 -1 91 -38 295 -64 357 -4 11 -20 56
-36 100 -35 102 -149 325 -166 325 -4 0 -8 6 -8 13 0 7 -8 22 -18 33 -10 10
-24 28 -32 40 -46 65 -224 254 -241 254 -3 0 -19 11 -35 25 -30 26 -180 132
-213 150 -11 6 -25 16 -32 22 -42 33 -277 143 -306 143 -2 0 -3 -10 -4 -22z"/>
</g>
</svg>
